<svg version="1.2" xmlns="http://www.w3.org/2000/svg" viewBox="0 0 123 123" width="123" height="123">
	<title>loader-icon-svg</title>
	<style>
		.s0 { fill: #ffffff } 
	</style>
	<g id="Layer">
		<path id="Layer" fill-rule="evenodd" class="s0" d="m94.8 14.5c8.8 0 16 7.2 16 16 0 8.9-7.2 16.1-16 16.1-8.9 0-16.1-7.2-16.1-16.1 0-8.8 7.2-16 16.1-16zm27.5 50.7c0 7.2-5.8 13-13 13-7.2 0-13.1-5.8-13.1-13 0-7.2 5.9-13.1 13.1-13.1 7.2 0 13 5.9 13 13.1zm-19.1 33.8c0 5-4 9.1-9.1 9.1-5 0-9.1-4.1-9.1-9.1 0-5 4.1-9.1 9.1-9.1 5.1 0 9.1 4.1 9.1 9.1zm-34.8 14.8c0 5-4.1 9.1-9.1 9.1-5.1 0-9.1-4.1-9.1-9.1 0-5.1 4-9.1 9.1-9.1 5 0 9.1 4 9.1 9.1zm-36.2-14.4c0 4.7-3.8 8.5-8.5 8.5-4.8 0-8.6-3.8-8.6-8.5 0-4.7 3.8-8.5 8.6-8.5 4.7 0 8.5 3.8 8.5 8.5zm-14-35.4c0 5-4.1 9.1-9.1 9.1-5 0-9.1-4.1-9.1-9.1 0-5.1 4.1-9.1 9.1-9.1 5 0 9.1 4 9.1 9.1zm17-35.5c0 6.4-5.2 11.5-11.5 11.5-6.4 0-11.6-5.1-11.6-11.5 0-6.3 5.2-11.5 11.6-11.5 6.3 0 11.5 5.2 11.5 11.5zm38-14.6c0 7.6-6.2 13.8-13.9 13.8-7.6 0-13.8-6.2-13.8-13.8 0-7.7 6.2-13.9 13.8-13.9 7.7 0 13.9 6.2 13.9 13.9z"/>
	</g>
</svg>